<svg width="49" height="43" viewBox="0 0 49 43" fill="none" xmlns="http://www.w3.org/2000/svg">
<path fill-rule="evenodd" clip-rule="evenodd" d="M41.1255 7.08481C41.1255 7.08481 40.8465 6.73117 39.3976 6.73923C37.9487 6.7473 21.7725 6.73923 21.7725 6.73923L25.4012 0.000324241C25.4012 0.000324241 31.0509 -0.000405301 33.3497 0.000324241C35.7772 0.00109218 37.3261 0.781951 38.8791 3.28351C40.0577 5.18128 40.3788 5.74207 41.1255 7.08481Z" fill="#8250E1"/>
<path fill-rule="evenodd" clip-rule="evenodd" d="M19.1807 0.000321037C19.1807 0.000321037 10.9683 14.5089 10.0224 16.243C9.07653 17.9772 8.46218 18.4676 8.46736 20.0445C8.47254 21.6215 8.79565 24.037 12.2688 24.0188C12.2688 24.0188 29.3251 24.0361 30.9305 24.0188C32.2892 24.004 32.6795 24.2538 32.6586 24.71C32.6377 25.1661 32.0354 26.0389 31.2763 27.3019C30.9597 27.8284 30.5924 28.4412 30.2394 29.0298C29.7458 29.853 29.3739 30.5856 28.3387 30.5849C28.3387 30.5849 8.95846 30.5962 6.91228 30.5849C4.45411 30.5714 3.49477 30.132 1.90116 27.3019C0.307552 24.4719 0.0199202 24.1839 0.000510533 22.118C-0.0188991 20.052 0.513359 19.5319 1.90125 17.107C3.28915 14.682 7.95466 6.48888 9.67696 3.62908C11.3993 0.769277 13.3026 -0.0004661 15.7249 0.000321037H19.1808H19.1807Z" fill="#8250E1"/>
<path fill-rule="evenodd" clip-rule="evenodd" d="M6.91229 35.77C6.91229 35.77 7.19105 36.1236 8.64015 36.1156C10.0893 36.1075 26.2651 36.1156 26.2651 36.1156L22.6364 42.8533C22.6364 42.8533 16.9867 42.854 14.6879 42.8533C12.2606 42.8525 10.7117 42.0717 9.15851 39.5707C7.98011 37.6731 7.65892 37.1126 6.91229 35.77Z" fill="#8250E1"/>
<path fill-rule="evenodd" clip-rule="evenodd" d="M28.8571 42.8533C28.8571 42.8533 37.0694 28.3475 38.0151 26.6135C38.9608 24.8795 39.5754 24.3893 39.5704 22.8128C39.5654 21.2362 39.2421 18.821 35.7689 18.8393C35.7689 18.8393 18.7124 18.8218 17.107 18.8393C15.7486 18.8539 15.3583 18.6041 15.3792 18.1481C15.4001 17.6922 16.0024 16.8194 16.7615 15.5567C17.0779 15.0303 17.4453 14.4175 17.7982 13.829C18.292 13.0058 18.6638 12.2734 19.699 12.2742C19.699 12.2742 39.0793 12.2628 41.1255 12.2742C43.5836 12.2876 44.543 12.727 46.1365 15.5567C47.7299 18.3864 48.0177 18.674 48.0373 20.7395C48.0569 22.8051 47.5245 23.3252 46.1365 25.7497C44.7484 28.1743 40.0832 36.3659 38.3607 39.2253C36.6382 42.0848 34.7351 42.854 32.313 42.8533H28.8571Z" fill="#8250E1"/>
</svg>
