<svg width="144" height="144" viewBox="0 0 144 144" fill="none" xmlns="http://www.w3.org/2000/svg">
<path fill-rule="evenodd" clip-rule="evenodd" d="M71.92 32.9862C69.727 32.9662 67.951 32.3082 67.951 31.5272C67.951 30.7352 69.727 30.1192 71.919 30.1392C74.101 30.1602 75.887 30.8182 75.887 31.5992C75.887 32.3802 74.102 33.0072 71.92 32.9862ZM71.92 33.7062C68.626 33.6752 65.968 32.6882 65.968 31.5062C65.968 30.3242 68.626 29.3992 71.919 29.4302C75.202 29.4612 77.871 30.4372 77.871 31.6192C77.871 32.8012 75.203 33.7372 71.92 33.7062ZM63.984 31.4862C63.984 33.0582 67.534 34.3742 71.919 34.4152C76.293 34.4562 79.855 33.2132 79.855 31.6402C79.855 30.0572 76.293 28.7512 71.919 28.7102C67.535 28.6792 63.984 29.9132 63.984 31.4862ZM62 31.4652C62 33.4392 66.434 35.0832 71.92 35.1352C77.394 35.1862 81.838 33.6242 81.838 31.6502C81.838 29.6772 77.394 28.0522 71.919 28.0012C66.434 27.9502 62 29.5022 62 31.4652Z" fill="white"/>
<path d="M113.286 56.48C129.896 52.3 140.726 45.2101 141.006 36.8201C141.476 22.3801 110.506 9.53005 71.856 8.13005C33.206 6.73005 1.47601 17.2801 1.00601 31.7301C0.726014 40.3501 11.636 48.4001 28.716 53.7901M113.286 56.48C101.286 59.48 86.336 61.01 70.146 60.42C54.566 59.86 40.236 57.4201 28.716 53.7901M113.286 56.48C130.366 61.87 141.286 69.9301 140.996 78.5501C140.746 86.1301 131.906 92.6501 117.906 96.9201C105.286 100.79 88.496 102.82 70.136 102.15C52.946 101.52 37.276 98.6301 25.216 94.3501C10.166 88.9901 0.736014 81.4501 1.00601 73.4501C1.28601 65.0601 12.106 58.0001 28.716 53.7901M117.916 96.9201C105.296 100.79 88.506 102.82 70.146 102.15C52.956 101.52 37.286 98.6301 25.226 94.3501C11.226 98.6201 2.39601 105.14 2.14601 112.72C1.66601 127.16 32.616 140.01 71.276 141.42C109.936 142.83 141.656 132.26 142.136 117.82C142.396 109.8 133.006 102.27 117.916 96.9201Z" stroke="white" stroke-width="2"/>
<path fill-rule="evenodd" clip-rule="evenodd" d="M79.8344 71.3226C79.8344 71.3226 79.7066 71.2566 79.0431 71.2581C78.3795 71.2596 70.9713 71.2581 70.9713 71.2581L72.6331 70.0001C72.6331 70.0001 75.2205 69.9999 76.2733 70.0001C77.385 70.0002 78.0944 70.146 78.8056 70.613C79.3454 70.9673 79.4925 71.0719 79.8344 71.3226Z" fill="white"/>
<path fill-rule="evenodd" clip-rule="evenodd" d="M69.7842 70.0004C69.7842 70.0004 66.0232 72.7088 65.59 73.0326C65.1568 73.3563 64.8754 73.4479 64.8778 73.7423C64.8802 74.0367 65.0282 74.4876 66.6188 74.4842C66.6188 74.4842 74.4301 74.4874 75.1653 74.4842C75.7876 74.4814 75.9663 74.5281 75.9567 74.6132C75.9471 74.6984 75.6713 74.8613 75.3237 75.0971C75.1787 75.1954 75.0105 75.3098 74.8488 75.4196C74.6228 75.5733 74.4524 75.7101 73.9784 75.71C73.9784 75.71 65.1027 75.7121 64.1656 75.71C63.0399 75.7074 62.6005 75.6254 61.8707 75.0971C61.1409 74.5688 61.0091 74.515 61.0002 74.1293C60.9913 73.7437 61.2351 73.6466 61.8707 73.1939C62.5063 72.7412 64.643 71.2117 65.4318 70.6778C66.2205 70.1439 67.0922 70.0002 68.2016 70.0004H69.7843H69.7842Z" fill="white"/>
<path fill-rule="evenodd" clip-rule="evenodd" d="M64.1655 76.6776C64.1655 76.6776 64.2932 76.7436 64.9568 76.7421C65.6205 76.7406 73.0286 76.7421 73.0286 76.7421L71.3667 77.9999C71.3667 77.9999 68.7793 78.0001 67.7265 77.9999C66.6149 77.9998 65.9055 77.854 65.1942 77.3871C64.6546 77.0329 64.5075 76.9282 64.1655 76.6776Z" fill="white"/>
<path fill-rule="evenodd" clip-rule="evenodd" d="M74.2157 77.9999C74.2157 77.9999 77.9767 75.2919 78.4098 74.9682C78.8429 74.6445 79.1243 74.553 79.1221 74.2587C79.1198 73.9644 78.9717 73.5135 77.3811 73.5169C77.3811 73.5169 69.5697 73.5137 68.8345 73.5169C68.2123 73.5197 68.0336 73.473 68.0431 73.3879C68.0527 73.3028 68.3285 73.1399 68.6762 72.9041C68.8211 72.8059 68.9894 72.6915 69.151 72.5816C69.3771 72.4279 69.5474 72.2912 70.0215 72.2913C70.0215 72.2913 78.8972 72.2892 79.8342 72.2913C80.96 72.2939 81.3994 72.3759 82.1291 72.9041C82.8589 73.4324 82.9907 73.4861 82.9997 73.8717C83.0086 74.2573 82.7648 74.3544 82.1291 74.807C81.4934 75.2596 79.3569 76.7888 78.5681 77.3226C77.7792 77.8564 76.9076 78.0001 75.7984 77.9999H74.2157Z" fill="white"/>
<path fill-rule="evenodd" clip-rule="evenodd" d="M79.8344 113.323C79.8344 113.323 79.7066 113.257 79.0431 113.258C78.3795 113.26 70.9713 113.258 70.9713 113.258L72.6331 112C72.6331 112 75.2205 112 76.2733 112C77.385 112 78.0944 112.146 78.8056 112.613C79.3454 112.967 79.4925 113.072 79.8344 113.323Z" fill="white"/>
<path fill-rule="evenodd" clip-rule="evenodd" d="M69.7842 112C69.7842 112 66.0232 114.709 65.59 115.033C65.1568 115.356 64.8754 115.448 64.8778 115.742C64.8802 116.037 65.0282 116.488 66.6188 116.484C66.6188 116.484 74.4301 116.487 75.1653 116.484C75.7876 116.481 75.9663 116.528 75.9567 116.613C75.9471 116.698 75.6713 116.861 75.3237 117.097C75.1787 117.195 75.0105 117.31 74.8488 117.42C74.6228 117.573 74.4524 117.71 73.9784 117.71C73.9784 117.71 65.1027 117.712 64.1656 117.71C63.0399 117.707 62.6005 117.625 61.8707 117.097C61.1409 116.569 61.0091 116.515 61.0002 116.129C60.9913 115.744 61.2351 115.647 61.8707 115.194C62.5063 114.741 64.643 113.212 65.4318 112.678C66.2205 112.144 67.0922 112 68.2016 112H69.7843H69.7842Z" fill="white"/>
<path fill-rule="evenodd" clip-rule="evenodd" d="M64.1655 118.678C64.1655 118.678 64.2932 118.744 64.9568 118.742C65.6205 118.741 73.0286 118.742 73.0286 118.742L71.3667 120C71.3667 120 68.7793 120 67.7265 120C66.6149 120 65.9055 119.854 65.1942 119.387C64.6546 119.033 64.5075 118.928 64.1655 118.678Z" fill="white"/>
<path fill-rule="evenodd" clip-rule="evenodd" d="M74.2157 120C74.2157 120 77.9767 117.292 78.4098 116.968C78.8429 116.645 79.1243 116.553 79.1221 116.259C79.1198 115.964 78.9717 115.514 77.3811 115.517C77.3811 115.517 69.5697 115.514 68.8345 115.517C68.2123 115.52 68.0336 115.473 68.0431 115.388C68.0527 115.303 68.3285 115.14 68.6762 114.904C68.8211 114.806 68.9894 114.691 69.151 114.582C69.3771 114.428 69.5474 114.291 70.0215 114.291C70.0215 114.291 78.8972 114.289 79.8342 114.291C80.96 114.294 81.3994 114.376 82.1291 114.904C82.8589 115.432 82.9907 115.486 82.9997 115.872C83.0086 116.257 82.7648 116.354 82.1291 116.807C81.4934 117.26 79.3569 118.789 78.5681 119.323C77.7792 119.856 76.9076 120 75.7984 120H74.2157Z" fill="white"/>
</svg>
