<svg width="144" height="144" viewBox="0 0 144 144" fill="none" xmlns="http://www.w3.org/2000/svg">
<path fill-rule="evenodd" clip-rule="evenodd" d="M54.877 31.2781C53.9752 31.2781 53.1104 30.9198 52.4728 30.2822C51.8352 29.6446 51.477 28.7798 51.477 27.8781C51.477 26.9763 51.8352 26.1115 52.4728 25.4739C53.1104 24.8363 53.9752 24.4781 54.877 24.4781C55.7787 24.4781 56.6435 24.8363 57.2811 25.4739C57.9187 26.1115 58.277 26.9763 58.277 27.8781C58.277 28.7798 57.9187 29.6446 57.2811 30.2822C56.6435 30.9198 55.7787 31.2781 54.877 31.2781ZM54.877 32.9781C53.5243 32.9781 52.2271 32.4407 51.2707 31.4843C50.3143 30.5279 49.777 29.2307 49.777 27.8781C49.777 26.5254 50.3143 25.2282 51.2707 24.2718C52.2271 23.3154 53.5243 22.7781 54.877 22.7781C56.2296 22.7781 57.5268 23.3154 58.4832 24.2718C59.4396 25.2282 59.977 26.5254 59.977 27.8781C59.977 29.2307 59.4396 30.5279 58.4832 31.4843C57.5268 32.4407 56.2296 32.9781 54.877 32.9781ZM48.077 27.8781C48.077 29.6815 48.7934 31.4111 50.0686 32.6864C51.3439 33.9616 53.0735 34.6781 54.877 34.6781C56.6804 34.6781 58.41 33.9616 59.6853 32.6864C60.9605 31.4111 61.677 29.6815 61.677 27.8781C61.677 26.0746 60.9605 24.345 59.6853 23.0697C58.41 21.7945 56.6804 21.0781 54.877 21.0781C53.0735 21.0781 51.3439 21.7945 50.0686 23.0697C48.7934 24.345 48.077 26.0746 48.077 27.8781ZM46.377 27.8781C46.377 28.9943 46.5968 30.0996 47.024 31.1309C47.4511 32.1621 48.0772 33.0992 48.8665 33.8885C49.6558 34.6778 50.5929 35.3039 51.6241 35.731C52.6554 36.1582 53.7607 36.378 54.877 36.378C55.9932 36.378 57.0985 36.1582 58.1298 35.731C59.161 35.3039 60.0981 34.6778 60.8874 33.8885C61.6767 33.0992 62.3028 32.1621 62.7299 31.1309C63.1571 30.0996 63.377 28.9943 63.377 27.8781C63.377 25.6237 62.4814 23.4617 60.8874 21.8676C59.2933 20.2736 57.1313 19.3781 54.877 19.3781C52.6226 19.3781 50.4606 20.2736 48.8665 21.8676C47.2725 23.4617 46.377 25.6237 46.377 27.8781Z" fill="white"/>
<path d="M132.622 108C128.025 115.961 121.905 122.939 114.612 128.535C107.318 134.131 98.9941 138.236 90.1143 140.615C81.2346 142.993 71.9732 143.6 62.8589 142.4C53.7447 141.2 44.9561 138.216 36.995 133.619C20.9176 124.334 9.18707 109.043 4.38408 91.1087C-0.418914 73.1748 2.09902 54.0674 11.384 37.99C17.5298 27.3494 26.3683 18.514 37.0111 12.372C47.6539 6.22993 59.726 2.99765 72.014 3L72.006 43.6C66.8449 43.5989 61.7746 44.9565 57.3045 47.5362C52.8344 50.1159 49.1222 53.8268 46.541 58.296C43.9598 62.7652 42.6005 67.8351 42.5998 72.9962C42.5992 78.1572 43.9571 83.2275 46.5371 87.6973C49.1172 92.1672 52.8284 95.8791 57.2978 98.46C61.7672 101.041 66.8373 102.4 71.9983 102.4C77.1593 102.4 82.2295 101.042 86.6992 98.4615C91.1688 95.8811 94.8805 92.1696 97.461 87.7L132.622 108Z" stroke="white" stroke-width="2"/>
<path d="M132.622 108C128.025 115.961 121.905 122.939 114.612 128.535C107.318 134.131 98.9941 138.236 90.1143 140.615C81.2346 142.993 71.9732 143.6 62.8589 142.4C53.7447 141.2 44.9561 138.216 36.995 133.619C20.9176 124.334 9.18707 109.043 4.38408 91.1087C-0.418914 73.1748 2.09902 54.0674 11.384 37.99C17.5298 27.3494 26.3683 18.514 37.0111 12.372C47.6539 6.22993 59.726 2.99765 72.014 3L72.006 43.6C66.8449 43.5989 61.7746 44.9565 57.3045 47.5362C52.8344 50.1159 49.1222 53.8268 46.541 58.296C43.9598 62.7652 42.6005 67.8351 42.5998 72.9962C42.5992 78.1572 43.9571 83.2275 46.5371 87.6973C49.1172 92.1672 52.8284 95.8791 57.2978 98.46C61.7672 101.041 66.8373 102.4 71.9983 102.4C77.1593 102.4 82.2295 101.042 86.6992 98.4615C91.1688 95.8811 94.8805 92.1696 97.461 87.7L132.622 108Z" stroke="url(#paint0_linear_22_50)" stroke-width="2"/>
<path d="M72 3C81.1945 2.99974 90.2989 4.81089 98.7932 8.33C107.288 11.8491 115.005 17.0072 121.506 23.5097C128.006 30.0122 133.162 37.7316 136.678 46.2271C140.195 54.7225 142.003 63.8275 142 73.022C141.996 85.312 138.757 97.3843 132.607 108.025L97.455 87.711C100.037 83.2417 101.397 78.1714 101.399 73.0097C101.4 67.8481 100.043 62.7771 97.4627 58.3064C94.8829 53.8358 91.1715 50.123 86.7019 47.5415C82.2322 44.96 77.1616 43.6006 72 43.6V3Z" stroke="white" stroke-width="2"/>
<path d="M72 3C81.1945 2.99974 90.2989 4.81089 98.7932 8.33C107.288 11.8491 115.005 17.0072 121.506 23.5097C128.006 30.0122 133.162 37.7316 136.678 46.2271C140.195 54.7225 142.003 63.8275 142 73.022C141.996 85.312 138.757 97.3843 132.607 108.025L97.455 87.711C100.037 83.2417 101.397 78.1714 101.399 73.0097C101.4 67.8481 100.043 62.7771 97.4627 58.3064C94.8829 53.8358 91.1715 50.123 86.7019 47.5415C82.2322 44.96 77.1616 43.6006 72 43.6V3Z" stroke="url(#paint1_linear_22_50)" stroke-width="2"/>
<path d="M65.277 76.704V68.364H66.536V75.62H70.315V76.704H65.277ZM71.752 76.704V68.364H74.725C75.374 68.364 75.911 68.482 76.337 68.718C76.764 68.954 77.083 69.278 77.294 69.687C77.506 70.094 77.612 70.553 77.612 71.064C77.612 71.577 77.505 72.038 77.29 72.448C77.078 72.855 76.758 73.178 76.33 73.418C75.903 73.653 75.367 73.771 74.72 73.771H72.676V72.705H74.606C75.016 72.705 75.349 72.634 75.604 72.493C75.848 72.3608 76.0445 72.1555 76.166 71.906C76.286 71.659 76.346 71.378 76.346 71.063C76.346 70.749 76.286 70.469 76.166 70.225C76.044 69.9775 75.8455 69.7759 75.6 69.65C75.345 69.512 75.008 69.443 74.59 69.443H73.01V76.703L71.752 76.704Z" fill="white"/>
<path fill-rule="evenodd" clip-rule="evenodd" d="M93.5352 22.3317C93.5352 22.3317 93.4433 22.2153 92.9665 22.218C92.4896 22.2206 87.1658 22.218 87.1658 22.218L88.36 20.0001C88.36 20.0001 90.2194 19.9999 90.976 20.0001C91.7749 20.0004 92.2847 20.2574 92.7958 21.0807C93.1837 21.7052 93.2894 21.8898 93.5352 22.3317Z" fill="white"/>
<path fill-rule="evenodd" clip-rule="evenodd" d="M86.3127 20.0004C86.3127 20.0004 83.6099 24.7754 83.2985 25.3461C82.9872 25.9169 82.785 26.0782 82.7867 26.5972C82.7884 27.1162 82.8948 27.9112 84.0379 27.9052C84.0379 27.9052 89.6514 27.9109 90.1797 27.9052C90.6269 27.9004 90.7553 27.9826 90.7485 28.1327C90.7416 28.2828 90.5434 28.5701 90.2935 28.9858C90.1893 29.159 90.0685 29.3607 89.9523 29.5544C89.7898 29.8254 89.6674 30.0665 89.3267 30.0662C89.3267 30.0662 82.9484 30.07 82.2749 30.0662C81.4659 30.0618 81.1502 29.9172 80.6257 28.9858C80.1012 28.0543 80.0066 27.9596 80.0002 27.2796C79.9938 26.5997 80.169 26.4285 80.6257 25.6304C81.0825 24.8323 82.618 22.1359 83.1848 21.1946C83.7517 20.2534 84.3781 20.0001 85.1753 20.0004H86.3127H86.3127Z" fill="white"/>
<path fill-rule="evenodd" clip-rule="evenodd" d="M82.2749 31.7725C82.2749 31.7725 82.3666 31.8888 82.8436 31.8862C83.3205 31.8835 88.6442 31.8862 88.6442 31.8862L87.45 34.1037C87.45 34.1037 85.5905 34.1039 84.834 34.1037C84.0351 34.1034 83.5253 33.8465 83.0142 33.0233C82.6263 32.3988 82.5206 32.2143 82.2749 31.7725Z" fill="white"/>
<path fill-rule="evenodd" clip-rule="evenodd" d="M89.4972 34.1037C89.4972 34.1037 92.2 29.3296 92.5113 28.7589C92.8225 28.1882 93.0248 28.0269 93.0231 27.508C93.0215 26.9892 92.9151 26.1943 91.772 26.2003C91.772 26.2003 86.1584 26.1945 85.6301 26.2003C85.183 26.2051 85.0545 26.1229 85.0614 25.9728C85.0683 25.8228 85.2665 25.5355 85.5164 25.12C85.6205 24.9467 85.7414 24.745 85.8576 24.5514C86.0201 24.2804 86.1425 24.0394 86.4831 24.0396C86.4831 24.0396 92.8615 24.0359 93.5349 24.0396C94.3439 24.044 94.6597 24.1887 95.1841 25.12C95.7086 26.0512 95.8033 26.1459 95.8097 26.8257C95.8162 27.5055 95.6409 27.6767 95.1841 28.4746C94.7273 29.2726 93.1919 31.9686 92.625 32.9097C92.0581 33.8508 91.4317 34.1039 90.6346 34.1037H89.4972Z" fill="white"/>
<defs>
<linearGradient id="paint0_linear_22_50" x1="72" y1="3" x2="72" y2="143" gradientUnits="userSpaceOnUse">
<stop stop-color="white"/>
<stop offset="1" stop-color="white" stop-opacity="0"/>
</linearGradient>
<linearGradient id="paint1_linear_22_50" x1="72" y1="3" x2="72" y2="143" gradientUnits="userSpaceOnUse">
<stop stop-color="white"/>
<stop offset="1" stop-color="white" stop-opacity="0"/>
</linearGradient>
</defs>
</svg>
