<svg width="144" height="144" viewBox="0 0 144 144" fill="none" xmlns="http://www.w3.org/2000/svg">
<path fill-rule="evenodd" clip-rule="evenodd" d="M63.9107 26.8892C63.9524 27.2414 63.9756 27.6005 63.9756 27.9655C63.9756 32.9164 59.9573 36.9311 54.9994 36.9311C51.3893 36.9311 48.2782 34.8026 46.8525 31.7334L48.2886 31.0116C49.4486 33.5571 52.0169 35.3263 54.9994 35.3263C59.0687 35.3263 62.369 32.0312 62.369 27.9655C62.369 27.8902 62.3678 27.8149 62.3655 27.7396L63.9107 26.8892ZM54.9994 19C58.7799 19 62.0152 21.3346 63.3376 24.6402L61.8017 25.1292C60.6904 22.4724 58.063 20.6047 54.9994 20.6047C50.93 20.6047 47.6297 23.8999 47.6297 27.9655C47.6297 28.0153 47.6309 28.0663 47.632 28.1161L46.1286 29.3443C46.059 28.8948 46.0231 28.4348 46.0231 27.9655C46.0242 23.0135 50.0426 19 54.9994 19Z" fill="white"/>
<path fill-rule="evenodd" clip-rule="evenodd" d="M45 31.5503L53.7791 24.3783L53.4148 27.3606L58.5386 24.4605L58.2788 27.2923L65 25.1546L55.8845 30.1692L56.5655 27.3154L51.2989 30.3986L51.647 28.2099L45 31.5503Z" fill="white"/>
<path d="M132.622 108C128.025 115.961 121.905 122.939 114.612 128.535C107.318 134.131 98.9941 138.236 90.1143 140.615C81.2346 142.993 71.9732 143.6 62.8589 142.4C53.7447 141.2 44.9561 138.216 36.995 133.619C20.9176 124.334 9.18707 109.043 4.38408 91.1087C-0.418914 73.1748 2.09902 54.0674 11.384 37.99C17.5298 27.3494 26.3683 18.514 37.0111 12.372C47.6539 6.22993 59.726 2.99765 72.014 3L72.006 43.6C66.8449 43.5989 61.7746 44.9565 57.3045 47.5362C52.8344 50.1159 49.1222 53.8268 46.541 58.296C43.9598 62.7652 42.6005 67.8351 42.5998 72.9962C42.5992 78.1572 43.9571 83.2275 46.5371 87.6973C49.1172 92.1672 52.8284 95.8791 57.2978 98.46C61.7672 101.041 66.8373 102.4 71.9983 102.4C77.1593 102.4 82.2295 101.042 86.6992 98.4615C91.1688 95.8811 94.8805 92.1696 97.461 87.7L132.622 108Z" stroke="white" stroke-width="2"/>
<path d="M132.622 108C128.025 115.961 121.905 122.939 114.612 128.535C107.318 134.131 98.9941 138.236 90.1143 140.615C81.2346 142.993 71.9732 143.6 62.8589 142.4C53.7447 141.2 44.9561 138.216 36.995 133.619C20.9176 124.334 9.18707 109.043 4.38408 91.1087C-0.418914 73.1748 2.09902 54.0674 11.384 37.99C17.5298 27.3494 26.3683 18.514 37.0111 12.372C47.6539 6.22993 59.726 2.99765 72.014 3L72.006 43.6C66.8449 43.5989 61.7746 44.9565 57.3045 47.5362C52.8344 50.1159 49.1222 53.8268 46.541 58.296C43.9598 62.7652 42.6005 67.8351 42.5998 72.9962C42.5992 78.1572 43.9571 83.2275 46.5371 87.6973C49.1172 92.1672 52.8284 95.8791 57.2978 98.46C61.7672 101.041 66.8373 102.4 71.9983 102.4C77.1593 102.4 82.2295 101.042 86.6992 98.4615C91.1688 95.8811 94.8805 92.1696 97.461 87.7L132.622 108Z" stroke="url(#paint0_linear_211_67)" stroke-width="2"/>
<path d="M72 3C81.1945 2.99974 90.2989 4.81089 98.7932 8.33C107.288 11.8491 115.005 17.0072 121.506 23.5097C128.006 30.0122 133.162 37.7316 136.678 46.2271C140.195 54.7225 142.003 63.8275 142 73.022C141.996 85.312 138.757 97.3843 132.607 108.025L97.455 87.711C100.037 83.2417 101.397 78.1714 101.399 73.0097C101.4 67.8481 100.043 62.7771 97.4627 58.3064C94.8829 53.8358 91.1715 50.123 86.7019 47.5415C82.2322 44.96 77.1616 43.6006 72 43.6V3Z" stroke="white" stroke-width="2"/>
<path d="M72 3C81.1945 2.99974 90.2989 4.81089 98.7932 8.33C107.288 11.8491 115.005 17.0072 121.506 23.5097C128.006 30.0122 133.162 37.7316 136.678 46.2271C140.195 54.7225 142.003 63.8275 142 73.022C141.996 85.312 138.757 97.3843 132.607 108.025L97.455 87.711C100.037 83.2417 101.397 78.1714 101.399 73.0097C101.4 67.8481 100.043 62.7771 97.4627 58.3064C94.8829 53.8358 91.1715 50.123 86.7019 47.5415C82.2322 44.96 77.1616 43.6006 72 43.6V3Z" stroke="url(#paint1_linear_211_67)" stroke-width="2"/>
<path d="M65.277 76.704V68.364H66.536V75.62H70.315V76.704H65.277ZM71.752 76.704V68.364H74.725C75.374 68.364 75.911 68.482 76.337 68.718C76.764 68.954 77.083 69.278 77.294 69.687C77.506 70.094 77.612 70.553 77.612 71.064C77.612 71.577 77.505 72.038 77.29 72.448C77.078 72.855 76.758 73.178 76.33 73.418C75.903 73.653 75.367 73.771 74.72 73.771H72.676V72.705H74.606C75.016 72.705 75.349 72.634 75.604 72.493C75.848 72.3608 76.0445 72.1555 76.166 71.906C76.286 71.659 76.346 71.378 76.346 71.063C76.346 70.749 76.286 70.469 76.166 70.225C76.044 69.9775 75.8455 69.7759 75.6 69.65C75.345 69.512 75.008 69.443 74.59 69.443H73.01V76.703L71.752 76.704Z" fill="white"/>
<path fill-rule="evenodd" clip-rule="evenodd" d="M93.5352 22.3317C93.5352 22.3317 93.4433 22.2153 92.9665 22.218C92.4896 22.2206 87.1658 22.218 87.1658 22.218L88.36 20.0001C88.36 20.0001 90.2194 19.9999 90.976 20.0001C91.7749 20.0004 92.2847 20.2574 92.7958 21.0807C93.1837 21.7052 93.2894 21.8898 93.5352 22.3317Z" fill="white"/>
<path fill-rule="evenodd" clip-rule="evenodd" d="M86.3127 20.0004C86.3127 20.0004 83.6099 24.7754 83.2985 25.3461C82.9872 25.9169 82.785 26.0782 82.7867 26.5972C82.7884 27.1162 82.8948 27.9112 84.0379 27.9052C84.0379 27.9052 89.6514 27.9109 90.1797 27.9052C90.6269 27.9004 90.7553 27.9826 90.7485 28.1327C90.7416 28.2828 90.5434 28.5701 90.2935 28.9858C90.1893 29.159 90.0685 29.3607 89.9523 29.5544C89.7898 29.8254 89.6674 30.0665 89.3267 30.0662C89.3267 30.0662 82.9484 30.07 82.2749 30.0662C81.4659 30.0618 81.1502 29.9172 80.6257 28.9858C80.1012 28.0543 80.0066 27.9596 80.0002 27.2796C79.9938 26.5997 80.169 26.4285 80.6257 25.6304C81.0825 24.8323 82.618 22.1359 83.1848 21.1946C83.7517 20.2534 84.3781 20.0001 85.1753 20.0004H86.3127H86.3127Z" fill="white"/>
<path fill-rule="evenodd" clip-rule="evenodd" d="M82.2749 31.7725C82.2749 31.7725 82.3666 31.8888 82.8436 31.8862C83.3205 31.8835 88.6442 31.8862 88.6442 31.8862L87.45 34.1037C87.45 34.1037 85.5905 34.1039 84.834 34.1037C84.0351 34.1034 83.5253 33.8465 83.0142 33.0233C82.6263 32.3988 82.5206 32.2143 82.2749 31.7725Z" fill="white"/>
<path fill-rule="evenodd" clip-rule="evenodd" d="M89.4972 34.1037C89.4972 34.1037 92.2 29.3296 92.5113 28.7589C92.8225 28.1882 93.0248 28.0269 93.0231 27.508C93.0215 26.9892 92.9151 26.1943 91.772 26.2003C91.772 26.2003 86.1584 26.1945 85.6301 26.2003C85.183 26.2051 85.0545 26.1229 85.0614 25.9728C85.0683 25.8228 85.2665 25.5355 85.5164 25.12C85.6205 24.9467 85.7414 24.745 85.8576 24.5514C86.0201 24.2804 86.1425 24.0394 86.4831 24.0396C86.4831 24.0396 92.8615 24.0359 93.5349 24.0396C94.3439 24.044 94.6597 24.1887 95.1841 25.12C95.7086 26.0512 95.8033 26.1459 95.8097 26.8257C95.8162 27.5055 95.6409 27.6767 95.1841 28.4746C94.7273 29.2726 93.1919 31.9686 92.625 32.9097C92.0581 33.8508 91.4317 34.1039 90.6346 34.1037H89.4972Z" fill="white"/>
<defs>
<linearGradient id="paint0_linear_211_67" x1="72" y1="3" x2="72" y2="143" gradientUnits="userSpaceOnUse">
<stop stop-color="white"/>
<stop offset="1" stop-color="white" stop-opacity="0"/>
</linearGradient>
<linearGradient id="paint1_linear_211_67" x1="72" y1="3" x2="72" y2="143" gradientUnits="userSpaceOnUse">
<stop stop-color="white"/>
<stop offset="1" stop-color="white" stop-opacity="0"/>
</linearGradient>
</defs>
</svg>
