<svg width="142" height="142" viewBox="0 0 142 142" fill="none" xmlns="http://www.w3.org/2000/svg">
<mask id="mask0_22_49" style="mask-type:luminance" maskUnits="userSpaceOnUse" x="0" y="0" width="142" height="142">
<path d="M0 0H142V142H0V0Z" fill="white"/>
</mask>
<g mask="url(#mask0_22_49)">
<path d="M55.9794 70.0909L54.2312 75H52.9528L51.2045 70.0909H52.4382L53.5664 73.7376H53.6175L54.7489 70.0909H55.9794ZM56.2359 69.4485V68.4545H61.4582V69.4485H59.4351V75H58.259V69.4485H56.2359ZM66.0221 70.2539C65.9923 69.9748 65.8666 69.7575 65.645 69.6019C65.4255 69.4464 65.14 69.3686 64.7884 69.3686C64.5413 69.3686 64.3293 69.4059 64.1524 69.4805C63.9756 69.555 63.8403 69.6562 63.7465 69.7841C63.6528 69.9119 63.6048 70.0579 63.6027 70.2219C63.6027 70.3583 63.6336 70.4766 63.6954 70.5767C63.7593 70.6768 63.8456 70.7621 63.9543 70.8324C64.0629 70.9006 64.1833 70.9581 64.3154 71.005C64.4475 71.0518 64.5807 71.0913 64.7149 71.1232L65.3286 71.2766C65.5757 71.3342 65.8133 71.4119 66.0413 71.5099C66.2714 71.608 66.477 71.7315 66.6581 71.8807C66.8414 72.0298 66.9862 72.2099 67.0928 72.4208C67.1993 72.6317 67.2526 72.8789 67.2526 73.1623C67.2526 73.5458 67.1546 73.8835 66.9585 74.1754C66.7625 74.4652 66.4791 74.6921 66.1084 74.8562C65.7398 75.0181 65.2934 75.0991 64.7693 75.0991C64.26 75.0991 63.8179 75.0202 63.4429 74.8626C63.07 74.7049 62.7781 74.4748 62.5672 74.1722C62.3584 73.8697 62.2455 73.5011 62.2284 73.0664H63.395C63.412 73.2944 63.4823 73.484 63.6059 73.6353C63.7295 73.7866 63.8904 73.8995 64.0885 73.9741C64.2888 74.0487 64.5125 74.0859 64.7597 74.0859C65.0175 74.0859 65.2433 74.0476 65.4372 73.9709C65.6333 73.892 65.7867 73.7834 65.8975 73.6449C66.0083 73.5043 66.0647 73.3402 66.0669 73.1527C66.0647 72.9822 66.0146 72.8416 65.9166 72.7308C65.8186 72.6179 65.6812 72.5241 65.5044 72.4496C65.3296 72.3729 65.1251 72.3047 64.8907 72.245L64.146 72.0533C63.607 71.9148 63.1808 71.7049 62.8676 71.4237C62.5566 71.1403 62.401 70.7642 62.401 70.2955C62.401 69.9098 62.5054 69.5721 62.7142 69.2823C62.9252 68.9925 63.2117 68.7678 63.574 68.608C63.9362 68.446 64.3463 68.3651 64.8044 68.3651C65.2689 68.3651 65.6759 68.446 66.0253 68.608C66.3769 68.7678 66.6528 68.9904 66.8531 69.2759C67.0534 69.5593 67.1567 69.8853 67.1631 70.2539H66.0221ZM67.8622 68.4545H69.2013L70.8026 71.3501H70.8665L72.4677 68.4545H73.8068L71.4258 72.5582V75H70.2433V72.5582L67.8622 68.4545ZM74.6466 68.4545H76.0976L78.0407 73.1974H78.1175L80.0606 68.4545H81.5116V75H80.3738V70.5032H80.3131L78.5042 74.9808H77.654L75.8451 70.4936H75.7844V75H74.6466V68.4545ZM82.8028 68.4545H84.2538L86.197 73.1974H86.2737L88.2169 68.4545H89.6679V75H88.5301V70.5032H88.4694L86.6604 74.9808H85.8103L84.0013 70.4936H83.9406V75H82.8028V68.4545Z" fill="white"/>
<path fill-rule="evenodd" clip-rule="evenodd" d="M71 1.15405e-09H70V42.6H71C76.9975 42.6 82.841 44.4987 87.6931 48.0239C92.5451 51.5491 96.1567 56.5199 98.01 62.2239C99.8633 67.9278 99.8633 74.0721 98.01 79.776C96.1567 85.48 92.5452 90.4508 87.6931 93.9761C82.8411 97.5013 76.9975 99.4 71.0001 99.4C65.0026 99.4 59.159 97.5014 54.307 93.9761C49.4549 90.4509 45.8434 85.4801 43.99 79.7762C42.1367 74.0722 42.1367 67.928 43.99 62.224L44.299 61.273L43.348 60.963L4.73496 48.419L3.78396 48.109L3.47496 49.061C-1.15809 63.3209 -1.15783 78.6815 3.47571 92.9413C8.10925 107.201 17.1382 119.628 29.2685 128.441C41.3987 137.254 56.0076 142 71.0013 142C85.995 142 100.604 137.253 112.734 128.44C124.864 119.626 133.892 107.199 138.526 92.9395C143.159 78.6796 143.159 63.319 138.525 49.0592C133.892 34.7994 124.863 22.3725 112.733 13.5595C100.602 4.74651 85.9937 -8.54616e-05 71 1.15405e-09ZM72 40.616V2.007C82.8034 2.16314 93.4192 4.85425 102.992 9.86358C112.566 14.8729 120.829 22.0605 127.116 30.8473C133.403 39.6342 137.539 49.7748 139.19 60.4525C140.842 71.1301 139.962 82.0464 136.623 92.322C130.992 109.64 118.743 124.029 102.546 132.354C86.3495 140.678 67.519 142.262 50.1595 136.76C32.7999 131.259 18.3191 119.118 9.87381 102.984C1.4285 86.8504 -0.296464 68.0322 5.07496 50.632L41.795 62.562C40.0368 68.6476 40.2236 75.1303 42.3292 81.1046C44.4348 87.0789 48.354 92.2461 53.5393 95.8846C58.7245 99.523 64.9169 101.451 71.2511 101.399C77.5853 101.346 83.745 99.3168 88.8697 95.5934C93.9943 91.87 97.8278 86.6388 99.8346 80.6307C101.841 74.6225 101.921 68.1375 100.063 62.0818C98.2049 56.026 94.5015 50.702 89.4701 46.8535C84.4388 43.005 78.331 40.8242 72 40.616Z" fill="white"/>
<path d="M4.4259 49.369C8.99393 35.3099 17.8955 23.0579 29.8549 14.3689C41.8142 5.67987 56.2173 1 70.9999 1V41.6C64.7912 41.6 58.7419 43.5656 53.719 47.215C48.6961 50.8643 44.9575 56.0102 43.0389 61.915L4.4259 49.369Z" stroke="white" stroke-width="2"/>
<path fill-rule="evenodd" clip-rule="evenodd" d="M54.5 27.9C53.5983 27.9 52.7335 27.5418 52.0958 26.9042C51.4582 26.2665 51.1 25.4017 51.1 24.5C51.1 23.5983 51.4582 22.7335 52.0958 22.0958C52.7335 21.4582 53.5983 21.1 54.5 21.1C55.4017 21.1 56.2665 21.4582 56.9042 22.0958C57.5418 22.7335 57.9 23.5983 57.9 24.5C57.9 25.4017 57.5418 26.2665 56.9042 26.9042C56.2665 27.5418 55.4017 27.9 54.5 27.9ZM54.5 29.6C53.1474 29.6 51.8502 29.0627 50.8938 28.1062C49.9373 27.1498 49.4 25.8526 49.4 24.5C49.4 23.1474 49.9373 21.8502 50.8938 20.8938C51.8502 19.9373 53.1474 19.4 54.5 19.4C55.8526 19.4 57.1498 19.9373 58.1062 20.8938C59.0627 21.8502 59.6 23.1474 59.6 24.5C59.6 25.8526 59.0627 27.1498 58.1062 28.1062C57.1498 29.0627 55.8526 29.6 54.5 29.6ZM47.7 24.5C47.7 26.3035 48.4164 28.0331 49.6917 29.3083C50.9669 30.5836 52.6965 31.3 54.5 31.3C56.3035 31.3 58.0331 30.5836 59.3083 29.3083C60.5836 28.0331 61.3 26.3035 61.3 24.5C61.3 22.6965 60.5836 20.9669 59.3083 19.6917C58.0331 18.4164 56.3035 17.7 54.5 17.7C52.6965 17.7 50.9669 18.4164 49.6917 19.6917C48.4164 20.9669 47.7 22.6965 47.7 24.5ZM46 24.5C46 25.6162 46.2199 26.7215 46.647 27.7528C47.0742 28.7841 47.7003 29.7211 48.4896 30.5104C49.2789 31.2997 50.2159 31.9258 51.2472 32.353C52.2785 32.7801 53.3838 33 54.5 33C55.6162 33 56.7215 32.7801 57.7528 32.353C58.7841 31.9258 59.7211 31.2997 60.5104 30.5104C61.2997 29.7211 61.9258 28.7841 62.353 27.7528C62.7801 26.7215 63 25.6162 63 24.5C63 22.2457 62.1045 20.0837 60.5104 18.4896C58.9164 16.8955 56.7543 16 54.5 16C52.2457 16 50.0837 16.8955 48.4896 18.4896C46.8955 20.0837 46 22.2457 46 24.5Z" fill="white"/>
<path fill-rule="evenodd" clip-rule="evenodd" d="M92.5352 19.3317C92.5352 19.3317 92.4433 19.2153 91.9665 19.218C91.4896 19.2206 86.1658 19.218 86.1658 19.218L87.36 17.0001C87.36 17.0001 89.2194 16.9999 89.976 17.0001C90.7749 17.0004 91.2847 17.2574 91.7958 18.0807C92.1837 18.7052 92.2894 18.8898 92.5352 19.3317Z" fill="white"/>
<path fill-rule="evenodd" clip-rule="evenodd" d="M85.3127 17.0004C85.3127 17.0004 82.6099 21.7754 82.2985 22.3461C81.9872 22.9169 81.785 23.0782 81.7867 23.5972C81.7884 24.1162 81.8948 24.9112 83.0379 24.9052C83.0379 24.9052 88.6514 24.9109 89.1797 24.9052C89.6269 24.9004 89.7553 24.9826 89.7485 25.1327C89.7416 25.2828 89.5434 25.5701 89.2935 25.9858C89.1893 26.159 89.0685 26.3607 88.9523 26.5544C88.7898 26.8254 88.6674 27.0665 88.3267 27.0662C88.3267 27.0662 81.9484 27.07 81.2749 27.0662C80.4659 27.0618 80.1502 26.9172 79.6257 25.9858C79.1012 25.0543 79.0066 24.9596 79.0002 24.2796C78.9938 23.5997 79.169 23.4285 79.6257 22.6304C80.0825 21.8323 81.618 19.1359 82.1848 18.1946C82.7517 17.2534 83.3781 17.0001 84.1753 17.0004H85.3127H85.3127Z" fill="white"/>
<path fill-rule="evenodd" clip-rule="evenodd" d="M81.2749 28.7725C81.2749 28.7725 81.3666 28.8888 81.8436 28.8862C82.3205 28.8835 87.6442 28.8862 87.6442 28.8862L86.45 31.1037C86.45 31.1037 84.5905 31.1039 83.834 31.1037C83.0351 31.1034 82.5253 30.8465 82.0142 30.0233C81.6263 29.3988 81.5206 29.2143 81.2749 28.7725Z" fill="white"/>
<path fill-rule="evenodd" clip-rule="evenodd" d="M88.4972 31.1037C88.4972 31.1037 91.2 26.3296 91.5113 25.7589C91.8225 25.1882 92.0248 25.0269 92.0231 24.508C92.0215 23.9892 91.9151 23.1943 90.772 23.2003C90.772 23.2003 85.1584 23.1945 84.6301 23.2003C84.183 23.2051 84.0545 23.1229 84.0614 22.9728C84.0683 22.8228 84.2665 22.5355 84.5164 22.12C84.6205 21.9467 84.7414 21.745 84.8576 21.5514C85.0201 21.2804 85.1425 21.0394 85.4831 21.0396C85.4831 21.0396 91.8615 21.0359 92.5349 21.0396C93.3439 21.044 93.6597 21.1887 94.1841 22.12C94.7086 23.0512 94.8033 23.1459 94.8097 23.8257C94.8162 24.5055 94.6409 24.6767 94.1841 25.4746C93.7273 26.2726 92.1919 28.9686 91.625 29.9097C91.0581 30.8508 90.4317 31.1039 89.6346 31.1037H88.4972Z" fill="white"/>
</g>
</svg>
