<svg width="85" height="76" viewBox="0 0 85 76" fill="none" xmlns="http://www.w3.org/2000/svg">
<circle cx="42.705" cy="37.705" r="36.705" fill="white"/>
<path fill-rule="evenodd" clip-rule="evenodd" d="M79.525 33.1761C79.7006 34.6573 79.7982 36.1677 79.7982 37.7025C79.7982 58.5223 62.9 75.4051 42.0505 75.4051C26.8694 75.4051 13.786 66.4545 7.79062 53.5475L13.8299 50.512C18.7081 61.2167 29.5085 68.6568 42.0505 68.6568C59.1633 68.6568 73.0419 54.7998 73.0419 37.7025C73.0419 37.3858 73.037 37.0691 73.0272 36.7524L79.525 33.1761ZM42.0505 0C57.9486 0 71.554 9.81782 77.1152 23.7188L70.6564 25.7749C65.9831 14.6025 54.9339 6.74822 42.0505 6.74822C24.9376 6.74822 11.0591 20.6053 11.0591 37.7025C11.0591 37.912 11.0639 38.1264 11.0688 38.3359L4.74665 43.5007C4.45396 41.6102 4.30273 39.6759 4.30273 37.7025C4.30761 16.8779 21.2058 0 42.0505 0Z" fill="#010E35"/>
<path fill-rule="evenodd" clip-rule="evenodd" d="M0 52.7773L36.9184 22.6172L35.3867 35.1587L56.9338 22.9631L55.8411 34.8712L84.1056 25.8817L45.7724 46.9694L48.636 34.9687L26.4888 47.9341L27.9523 38.7302L0 52.7773Z" fill="#010E35"/>
</svg>
