<svg width="298" height="298" viewBox="0 0 298 298" fill="none" xmlns="http://www.w3.org/2000/svg">
<path d="M270.155 218.475L226.719 159.396C222 152.977 215.013 149.131 207.572 148.283C205.878 148.086 204.366 147.102 203.519 145.618C202.657 144.134 202.566 142.332 203.247 140.758C206.226 133.884 206.407 125.905 203.201 118.607L173.816 51.4125C169.46 41.4348 159.614 35 148.74 35C137.866 35 128.021 41.45 123.665 51.4125L94.2793 118.607C91.0882 125.905 91.2546 133.884 94.234 140.758C94.9147 142.332 94.8087 144.134 93.9616 145.618C93.0997 147.102 91.6025 148.086 89.9086 148.283C82.4675 149.131 75.4804 152.977 70.7618 159.396L27.3261 218.475C20.8834 227.242 20.2331 238.991 25.6625 248.424C31.1071 257.841 41.603 263.155 52.4015 261.959L125.223 253.844C133.133 252.966 139.953 248.832 144.4 242.806C145.413 241.429 147.031 240.611 148.74 240.611C150.449 240.611 152.052 241.429 153.081 242.806C157.527 248.832 164.348 252.966 172.258 253.844L245.079 261.959C255.878 263.171 266.374 257.856 271.818 248.424C277.247 238.991 276.597 227.242 270.155 218.475ZM113.275 127.04L142.706 59.7702C143.764 57.3628 146.139 55.8033 148.755 55.8033C151.372 55.8033 153.746 57.3628 154.805 59.7702L184.236 127.04C185.159 129.16 184.962 131.613 183.692 133.551C182.421 135.489 180.274 136.655 177.944 136.655H119.551C117.237 136.655 115.075 135.489 113.804 133.551C112.534 131.613 112.337 129.16 113.26 127.04H113.275ZM128.383 229.452C127.34 231.526 125.313 232.92 123.015 233.177L50.1177 241.292C47.5164 241.58 44.9756 240.308 43.6599 238.037C42.3441 235.766 42.5104 232.935 44.0682 230.815L87.5491 171.675C88.9256 169.813 91.1335 168.753 93.4476 168.889C95.7615 169.01 97.8485 170.297 99.013 172.311L99.0586 172.387L128.172 222.866L128.217 222.942C129.382 224.955 129.442 227.408 128.399 229.467L128.383 229.452ZM154.729 206.62C153.489 208.755 151.221 210.087 148.74 210.087C146.275 210.087 143.992 208.77 142.751 206.635L120.383 167.86C119.143 165.725 119.143 163.075 120.383 160.94C121.623 158.806 123.892 157.473 126.372 157.473H171.093C173.559 157.473 175.842 158.775 177.083 160.925C178.322 163.075 178.322 165.71 177.083 167.845L154.729 206.62ZM253.836 238.037C252.52 240.308 249.994 241.595 247.378 241.307L174.481 233.192C172.182 232.935 170.156 231.542 169.112 229.467C168.069 227.393 168.129 224.94 169.294 222.942L169.339 222.866L198.452 172.387L198.498 172.311C199.662 170.297 201.749 169.01 204.063 168.889C206.377 168.768 208.585 169.813 209.961 171.675L253.443 230.815C255 232.935 255.152 235.766 253.851 238.037H253.836Z" fill="#E81899"/>
</svg>
