<svg width="500" height="500" viewBox="0 0 500 500" fill="none" xmlns="http://www.w3.org/2000/svg">
<circle cx="250" cy="250" r="250" fill="#1E1E1E"/>
<path fill-rule="evenodd" clip-rule="evenodd" d="M383.24 139.195C383.24 139.195 381.087 136.464 369.901 136.527C358.715 136.589 233.834 136.527 233.834 136.527L261.848 84.502C261.848 84.502 305.464 84.4964 323.211 84.502C341.951 84.5079 353.909 90.5362 365.898 109.848C374.997 124.499 377.476 128.829 383.24 139.195Z" fill="url(#paint0_linear_63_25)"/>
<path fill-rule="evenodd" clip-rule="evenodd" d="M213.825 84.5021C213.825 84.5021 150.426 196.509 143.123 209.897C135.821 223.285 131.078 227.07 131.118 239.244C131.158 251.419 133.652 270.067 160.466 269.926C160.466 269.926 292.141 270.059 304.535 269.926C315.024 269.812 318.037 271.74 317.875 275.262C317.714 278.783 313.064 285.521 307.204 295.272C304.76 299.336 301.925 304.067 299.199 308.611C295.388 314.966 292.518 320.622 284.526 320.616C284.526 320.616 134.909 320.704 119.113 320.616C100.135 320.513 92.7293 317.12 80.4265 295.272C68.1238 273.424 65.9033 271.201 65.7535 255.251C65.6036 239.302 69.7127 235.287 80.4273 216.566C91.1419 197.846 127.16 134.594 140.456 112.516C153.752 90.4385 168.446 84.496 187.146 84.5021H213.825Z" fill="url(#paint1_linear_63_25)"/>
<path fill-rule="evenodd" clip-rule="evenodd" d="M119.113 360.646C119.113 360.646 121.265 363.376 132.452 363.314C143.639 363.251 268.517 363.314 268.517 363.314L240.504 415.329C240.504 415.329 196.888 415.335 179.141 415.329C160.402 415.323 148.444 409.295 136.454 389.987C127.356 375.338 124.877 371.01 119.113 360.646Z" fill="url(#paint2_linear_63_25)"/>
<path fill-rule="evenodd" clip-rule="evenodd" d="M288.527 415.329C288.527 415.329 351.927 303.343 359.228 289.957C366.529 276.57 371.273 272.786 371.235 260.615C371.196 248.444 368.7 229.799 341.887 229.939C341.887 229.939 210.21 229.805 197.817 229.939C187.329 230.052 184.316 228.124 184.477 224.604C184.639 221.084 189.288 214.346 195.149 204.598C197.591 200.534 200.428 195.803 203.152 191.26C206.964 184.905 209.835 179.251 217.827 179.257C217.827 179.257 367.443 179.169 383.24 179.257C402.217 179.36 409.623 182.753 421.925 204.598C434.227 226.443 436.449 228.663 436.6 244.61C436.751 260.556 432.641 264.571 421.925 283.289C411.209 302.007 375.194 365.246 361.896 387.321C348.598 409.396 333.906 415.335 315.207 415.329H288.527Z" fill="url(#paint3_linear_63_25)"/>
<defs>
<linearGradient id="paint0_linear_63_25" x1="65.796" y1="249.851" x2="436.546" y2="249.851" gradientUnits="userSpaceOnUse">
<stop offset="0.00269724" stop-color="#FCFF52"/>
<stop offset="0.51" stop-color="#A7BC54"/>
<stop offset="1" stop-color="#3E6957"/>
</linearGradient>
<linearGradient id="paint1_linear_63_25" x1="65.796" y1="249.851" x2="436.546" y2="249.851" gradientUnits="userSpaceOnUse">
<stop offset="0.00269724" stop-color="#FCFF52"/>
<stop offset="0.51" stop-color="#A7BC54"/>
<stop offset="1" stop-color="#3E6957"/>
</linearGradient>
<linearGradient id="paint2_linear_63_25" x1="65.796" y1="249.851" x2="436.546" y2="249.851" gradientUnits="userSpaceOnUse">
<stop offset="0.00269724" stop-color="#FCFF52"/>
<stop offset="0.51" stop-color="#A7BC54"/>
<stop offset="1" stop-color="#3E6957"/>
</linearGradient>
<linearGradient id="paint3_linear_63_25" x1="65.796" y1="249.851" x2="436.546" y2="249.851" gradientUnits="userSpaceOnUse">
<stop offset="0.00269724" stop-color="#FCFF52"/>
<stop offset="0.51" stop-color="#A7BC54"/>
<stop offset="1" stop-color="#3E6957"/>
</linearGradient>
</defs>
</svg>
