<svg width="1049" height="1048" viewBox="0 0 1049 1048" fill="none" xmlns="http://www.w3.org/2000/svg">
<circle cx="524.396" cy="524.035" r="523.621" fill="#18191A"/>
<path fill-rule="evenodd" clip-rule="evenodd" d="M834.366 268.841C834.366 268.841 829.354 262.488 803.323 262.633C777.291 262.778 486.667 262.633 486.667 262.633L551.861 141.561C551.861 141.561 653.364 141.547 694.665 141.561C738.277 141.574 766.106 155.603 794.006 200.547C815.181 234.642 820.952 244.717 834.366 268.841Z" fill="#38FF9C"/>
<path fill-rule="evenodd" clip-rule="evenodd" d="M440.103 141.561C440.103 141.561 292.559 402.223 275.564 433.38C258.57 464.536 247.533 473.346 247.626 501.678C247.719 530.01 253.524 573.408 315.924 573.08C315.924 573.08 622.359 573.39 651.202 573.08C675.612 572.814 682.624 577.302 682.248 585.497C681.872 593.693 671.052 609.373 657.414 632.065C651.726 641.523 645.128 652.533 638.785 663.108C629.917 677.898 623.236 691.061 604.637 691.047C604.637 691.047 256.449 691.25 219.687 691.047C175.523 690.805 158.287 682.91 129.656 632.065C101.026 581.22 95.8579 576.046 95.5092 538.929C95.1605 501.812 104.723 492.468 129.658 448.901C154.593 405.334 238.415 258.135 269.358 206.755C300.301 155.376 334.496 141.547 378.015 141.561H440.103Z" fill="#38FF9C"/>
<path fill-rule="evenodd" clip-rule="evenodd" d="M219.687 784.203C219.687 784.203 224.695 790.557 250.73 790.412C276.765 790.267 567.382 790.412 567.382 790.412L502.189 911.463C502.189 911.463 400.685 911.476 359.384 911.463C315.776 911.449 287.947 897.421 260.043 852.488C238.872 818.396 233.101 808.324 219.687 784.203Z" fill="#38FF9C"/>
<path fill-rule="evenodd" clip-rule="evenodd" d="M613.95 911.462C613.95 911.462 761.494 650.85 778.485 619.696C795.476 588.543 806.517 579.737 806.427 551.412C806.337 523.087 800.529 479.696 738.129 480.023C738.129 480.023 431.69 479.709 402.847 480.023C378.441 480.285 371.428 475.798 371.804 467.606C372.18 459.414 383 443.734 396.639 421.049C402.323 411.591 408.925 400.581 415.264 390.009C424.136 375.219 430.817 362.06 449.415 362.074C449.415 362.074 797.604 361.87 834.366 362.074C878.529 362.315 895.765 370.21 924.394 421.049C953.022 471.887 958.193 477.054 958.544 514.164C958.896 551.274 949.332 560.618 924.394 604.178C899.456 647.738 815.64 794.91 784.693 846.282C753.747 897.655 719.555 911.476 676.039 911.462H613.95Z" fill="#38FF9C"/>
</svg>
