<svg width="500" height="447" viewBox="0 0 500 447" fill="none" xmlns="http://www.w3.org/2000/svg">
<path fill-rule="evenodd" clip-rule="evenodd" d="M428.054 73.742C428.054 73.742 425.151 70.0612 410.07 70.1451C394.989 70.229 226.619 70.1451 226.619 70.1451L264.388 0.00337485C264.388 0.00337485 323.193 -0.00421856 347.121 0.00337485C372.387 0.0113679 388.509 8.13891 404.673 34.1763C416.94 53.9292 420.283 59.7661 428.054 73.742Z" fill="#3E6957"/>
<path fill-rule="evenodd" clip-rule="evenodd" d="M199.641 0.00122698C199.641 0.00122698 114.164 151.013 104.318 169.063C94.4727 187.113 88.0783 192.217 88.1322 208.631C88.1862 225.044 91.5493 250.187 127.7 249.997C127.7 249.997 305.23 250.177 321.939 249.997C336.081 249.843 340.143 252.443 339.926 257.191C339.708 261.938 333.439 271.023 325.538 284.169C322.243 289.648 318.42 296.027 314.746 302.154C309.608 310.722 305.737 318.347 294.963 318.339C294.963 318.339 93.2438 318.457 71.9463 318.339C46.3605 318.2 36.3751 313.626 19.7881 284.169C3.20114 254.713 0.207339 251.715 0.00531386 230.212C-0.196711 208.709 5.34328 203.295 19.7891 178.055C34.235 152.815 82.7959 67.5372 100.722 37.771C118.649 8.00488 138.46 -0.00696591 163.672 0.00122698H199.642H199.641Z" fill="#3E6957"/>
<path fill-rule="evenodd" clip-rule="evenodd" d="M71.9434 372.312C71.9434 372.312 74.8448 375.993 89.9277 375.909C105.011 375.825 273.377 375.909 273.377 375.909L235.607 446.038C235.607 446.038 176.802 446.046 152.875 446.038C127.611 446.03 111.489 437.903 95.3231 411.872C83.0577 392.121 79.7146 386.286 71.9434 372.312Z" fill="#3E6957"/>
<path fill-rule="evenodd" clip-rule="evenodd" d="M300.358 446.036C300.358 446.036 385.836 295.053 395.68 277.004C405.523 258.956 411.92 253.854 411.868 237.445C411.816 221.035 408.451 195.897 372.3 196.086C372.3 196.086 194.768 195.905 178.059 196.086C163.919 196.238 159.856 193.639 160.074 188.893C160.292 184.147 166.561 175.063 174.462 161.92C177.755 156.441 181.579 150.062 185.252 143.938C190.392 135.369 194.262 127.746 205.037 127.754C205.037 127.754 406.756 127.636 428.054 127.754C453.639 127.894 463.625 132.468 480.21 161.92C496.796 191.373 499.791 194.366 499.995 215.865C500.199 237.365 494.658 242.778 480.21 268.014C465.763 293.25 417.205 378.512 399.276 408.274C381.348 438.036 361.539 446.044 336.329 446.036H300.358Z" fill="#3E6957"/>
</svg>
