<svg width="500" height="500" viewBox="0 0 500 500" fill="none" xmlns="http://www.w3.org/2000/svg">
<circle cx="250" cy="250" r="250" fill="white"/>
<path fill-rule="evenodd" clip-rule="evenodd" d="M381.99 139.195C381.99 139.195 379.837 136.464 368.651 136.527C357.465 136.589 232.584 136.527 232.584 136.527L260.598 84.502C260.598 84.502 304.214 84.4964 321.961 84.502C340.701 84.5079 352.659 90.5362 364.648 109.848C373.747 124.499 376.226 128.829 381.99 139.195Z" fill="url(#paint0_linear_94_51)"/>
<path fill-rule="evenodd" clip-rule="evenodd" d="M212.575 84.5021C212.575 84.5021 149.176 196.509 141.873 209.897C134.571 223.285 129.828 227.07 129.868 239.244C129.908 251.419 132.402 270.067 159.216 269.926C159.216 269.926 290.891 270.059 303.285 269.926C313.774 269.812 316.787 271.74 316.625 275.262C316.464 278.783 311.814 285.521 305.954 295.272C303.51 299.336 300.675 304.067 297.949 308.611C294.138 314.966 291.268 320.622 283.276 320.616C283.276 320.616 133.659 320.704 117.863 320.616C98.8855 320.513 91.4793 317.12 79.1765 295.272C66.8738 273.424 64.6533 271.201 64.5035 255.251C64.3536 239.302 68.4627 235.287 79.1773 216.566C89.8919 197.846 125.91 134.594 139.206 112.516C152.502 90.4385 167.196 84.496 185.896 84.5021H212.575Z" fill="url(#paint1_linear_94_51)"/>
<path fill-rule="evenodd" clip-rule="evenodd" d="M117.863 360.646C117.863 360.646 120.015 363.376 131.202 363.314C142.389 363.251 267.267 363.314 267.267 363.314L239.254 415.329C239.254 415.329 195.638 415.335 177.891 415.329C159.152 415.323 147.194 409.295 135.204 389.987C126.106 375.338 123.627 371.01 117.863 360.646Z" fill="url(#paint2_linear_94_51)"/>
<path fill-rule="evenodd" clip-rule="evenodd" d="M287.277 415.329C287.277 415.329 350.677 303.343 357.978 289.957C365.279 276.57 370.023 272.786 369.985 260.615C369.946 248.444 367.45 229.799 340.637 229.939C340.637 229.939 208.96 229.805 196.567 229.939C186.079 230.052 183.066 228.124 183.227 224.604C183.389 221.084 188.038 214.346 193.899 204.598C196.341 200.534 199.178 195.803 201.902 191.26C205.714 184.905 208.585 179.251 216.577 179.257C216.577 179.257 366.193 179.169 381.99 179.257C400.967 179.36 408.373 182.753 420.675 204.598C432.977 226.443 435.199 228.663 435.35 244.61C435.501 260.556 431.391 264.571 420.675 283.289C409.959 302.007 373.944 365.246 360.646 387.321C347.348 409.396 332.656 415.335 313.957 415.329H287.277Z" fill="url(#paint3_linear_94_51)"/>
<defs>
<linearGradient id="paint0_linear_94_51" x1="64.5459" y1="249.851" x2="435.296" y2="249.851" gradientUnits="userSpaceOnUse">
<stop stop-color="#010E35"/>
<stop offset="0.485" stop-color="#021B67"/>
<stop offset="1" stop-color="#03299B"/>
</linearGradient>
<linearGradient id="paint1_linear_94_51" x1="64.5459" y1="249.851" x2="435.296" y2="249.851" gradientUnits="userSpaceOnUse">
<stop stop-color="#010E35"/>
<stop offset="0.485" stop-color="#021B67"/>
<stop offset="1" stop-color="#03299B"/>
</linearGradient>
<linearGradient id="paint2_linear_94_51" x1="64.5459" y1="249.851" x2="435.296" y2="249.851" gradientUnits="userSpaceOnUse">
<stop stop-color="#010E35"/>
<stop offset="0.485" stop-color="#021B67"/>
<stop offset="1" stop-color="#03299B"/>
</linearGradient>
<linearGradient id="paint3_linear_94_51" x1="64.5459" y1="249.851" x2="435.296" y2="249.851" gradientUnits="userSpaceOnUse">
<stop stop-color="#010E35"/>
<stop offset="0.485" stop-color="#021B67"/>
<stop offset="1" stop-color="#03299B"/>
</linearGradient>
</defs>
</svg>
