<svg width="864" height="770" viewBox="0 0 864 770" fill="none" xmlns="http://www.w3.org/2000/svg">
<path fill-rule="evenodd" clip-rule="evenodd" d="M738.866 127.287C738.866 127.287 733.854 120.933 707.823 121.078C681.791 121.223 391.167 121.078 391.167 121.078L456.361 0.00582535C456.361 0.00582535 557.864 -0.00728169 599.165 0.00582535C642.777 0.0196222 670.606 14.0486 698.506 58.992C719.681 93.0876 725.452 103.163 738.866 127.287Z" fill="#E81899"/>
<path fill-rule="evenodd" clip-rule="evenodd" d="M344.603 0.006019C344.603 0.006019 197.059 260.668 180.064 291.825C163.07 322.982 152.033 331.791 152.126 360.123C152.219 388.455 158.024 431.853 220.424 431.525C220.424 431.525 526.859 431.836 555.702 431.525C580.112 431.26 587.124 435.747 586.748 443.943C586.372 452.138 575.552 467.818 561.914 490.51C556.226 499.968 549.628 510.978 543.285 521.553C534.417 536.344 527.736 549.506 509.137 549.492C509.137 549.492 160.949 549.696 124.187 549.492C80.0232 549.251 62.7874 541.355 34.1565 490.51C5.52551 439.665 0.357889 434.492 0.0091723 397.375C-0.339544 360.258 9.22308 350.914 34.1582 307.346C59.0933 263.779 142.915 116.58 173.858 65.2008C204.8 13.8212 238.996 -0.00812281 282.515 0.006019H344.603Z" fill="#E81899"/>
<path fill-rule="evenodd" clip-rule="evenodd" d="M124.187 642.649C124.187 642.649 129.195 649.002 155.23 648.857C181.265 648.712 471.882 648.857 471.882 648.857L406.689 769.908C406.689 769.908 305.185 769.922 263.884 769.908C220.276 769.894 192.447 755.866 164.543 710.933C143.372 676.841 137.601 666.769 124.187 642.649Z" fill="#E81899"/>
<path fill-rule="evenodd" clip-rule="evenodd" d="M518.45 769.908C518.45 769.908 665.994 509.295 682.985 478.141C699.976 446.988 711.016 438.182 710.927 409.857C710.837 381.532 705.029 338.141 642.629 338.469C642.629 338.469 336.19 338.155 307.347 338.469C282.941 338.731 275.928 334.243 276.304 326.051C276.68 317.86 287.5 302.179 301.139 279.494C306.823 270.036 313.425 259.026 319.764 248.454C328.636 233.664 335.317 220.505 353.915 220.519C353.915 220.519 702.104 220.316 738.865 220.519C783.029 220.76 800.265 228.656 828.894 279.494C857.522 330.332 862.693 335.499 863.044 372.609C863.396 409.719 853.831 419.063 828.894 462.623C803.956 506.184 720.14 653.355 689.193 704.728C658.247 756.1 624.055 769.921 580.539 769.908H518.45Z" fill="#E81899"/>
</svg>
