<svg width="500" height="447" viewBox="0 0 500 447" fill="none" xmlns="http://www.w3.org/2000/svg">
<path fill-rule="evenodd" clip-rule="evenodd" d="M428.054 73.742C428.054 73.742 425.151 70.0612 410.07 70.1451C394.989 70.229 226.619 70.1451 226.619 70.1451L264.388 0.00337485C264.388 0.00337485 323.193 -0.00421856 347.121 0.00337485C372.387 0.0113679 388.509 8.13891 404.673 34.1763C416.94 53.9292 420.283 59.7661 428.054 73.742Z" fill="#8250E1"/>
<path fill-rule="evenodd" clip-rule="evenodd" d="M199.641 0.00293596C199.641 0.00293596 114.164 151.014 104.318 169.065C94.4727 187.115 88.0783 192.219 88.1322 208.632C88.1862 225.046 91.5493 250.188 127.7 249.999C127.7 249.999 305.23 250.178 321.939 249.999C336.081 249.845 340.144 252.444 339.926 257.192C339.708 261.94 333.439 271.024 325.538 284.171C322.243 289.65 318.42 296.029 314.746 302.155C309.608 310.724 305.737 318.349 294.963 318.341C294.963 318.341 93.2438 318.459 71.9463 318.341C46.3605 318.201 36.3752 313.627 19.7881 284.171C3.20114 254.714 0.207339 251.717 0.00531386 230.214C-0.196711 208.71 5.34328 203.297 19.7891 178.057C34.235 152.817 82.7959 67.5389 100.722 37.7728C118.649 8.00659 138.46 -0.00525693 163.672 0.00293596H199.642H199.641Z" fill="#8250E1"/>
<path fill-rule="evenodd" clip-rule="evenodd" d="M71.9473 372.312C71.9473 372.312 74.8487 375.992 89.9317 375.908C105.015 375.824 273.38 375.908 273.38 375.908L235.611 446.038C235.611 446.038 176.806 446.046 152.879 446.038C127.615 446.03 111.493 437.903 95.327 411.871C83.0616 392.12 79.7185 386.285 71.9473 372.312Z" fill="#8250E1"/>
<path fill-rule="evenodd" clip-rule="evenodd" d="M300.356 446.038C300.356 446.038 385.834 295.055 395.677 277.006C405.521 258.958 411.917 253.856 411.865 237.447C411.813 221.037 408.448 195.899 372.297 196.088C372.297 196.088 194.766 195.907 178.056 196.088C163.916 196.24 159.854 193.641 160.072 188.895C160.29 184.149 166.558 175.065 174.459 161.922C177.752 156.443 181.577 150.064 185.25 143.94C190.389 135.371 194.26 127.748 205.035 127.756C205.035 127.756 406.754 127.638 428.051 127.756C453.637 127.896 463.622 132.47 480.208 161.922C496.793 191.375 499.789 194.368 499.993 215.867C500.196 237.367 494.655 242.78 480.208 268.016C465.76 293.252 417.202 378.514 399.274 408.276C381.346 438.038 361.537 446.046 336.327 446.038H300.356Z" fill="#8250E1"/>
</svg>
