<svg width="142" height="142" viewBox="0 0 142 142" fill="none" xmlns="http://www.w3.org/2000/svg">
<mask id="mask0_211_11" style="mask-type:luminance" maskUnits="userSpaceOnUse" x="0" y="0" width="142" height="142">
<path d="M0 0H142V142H0V0Z" fill="white"/>
</mask>
<g mask="url(#mask0_211_11)">
<path d="M55.9794 70.0909L54.2312 75H52.9528L51.2045 70.0909H52.4382L53.5664 73.7376H53.6175L54.7489 70.0909H55.9794ZM56.8311 68.4545H58.2821L60.2253 73.1974H60.302L62.2452 68.4545H63.6962V75H62.5584V70.5032H62.4977L60.6887 74.9808H59.8386L58.0297 70.4936H57.9689V75H56.8311V68.4545ZM68.5446 70.2539C68.5147 69.9748 68.389 69.7575 68.1674 69.6019C67.948 69.4464 67.6625 69.3686 67.3109 69.3686C67.0637 69.3686 66.8517 69.4059 66.6749 69.4805C66.498 69.555 66.3627 69.6562 66.269 69.7841C66.1752 69.9119 66.1273 70.0579 66.1252 70.2219C66.1252 70.3583 66.1561 70.4766 66.2179 70.5767C66.2818 70.6768 66.3681 70.7621 66.4767 70.8324C66.5854 70.9006 66.7058 70.9581 66.8379 71.005C66.97 71.0518 67.1032 71.0913 67.2374 71.1232L67.851 71.2766C68.0982 71.3342 68.3358 71.4119 68.5637 71.5099C68.7939 71.608 68.9995 71.7315 69.1806 71.8807C69.3638 72.0298 69.5087 72.2099 69.6152 72.4208C69.7218 72.6317 69.775 72.8789 69.775 73.1623C69.775 73.5458 69.677 73.8835 69.481 74.1754C69.285 74.4652 69.0016 74.6921 68.6309 74.8562C68.2623 75.0181 67.8159 75.0991 67.2917 75.0991C66.7825 75.0991 66.3404 75.0202 65.9654 74.8626C65.5925 74.7049 65.3006 74.4748 65.0897 74.1722C64.8809 73.8697 64.7679 73.5011 64.7509 73.0664H65.9174C65.9345 73.2944 66.0048 73.484 66.1284 73.6353C66.252 73.7866 66.4128 73.8995 66.611 73.9741C66.8113 74.0487 67.035 74.0859 67.2821 74.0859C67.54 74.0859 67.7658 74.0476 67.9597 73.9709C68.1557 73.892 68.3091 73.7834 68.4199 73.6449C68.5307 73.5043 68.5872 73.3402 68.5893 73.1527C68.5872 72.9822 68.5371 72.8416 68.4391 72.7308C68.3411 72.6179 68.2037 72.5241 68.0268 72.4496C67.8521 72.3729 67.6475 72.3047 67.4132 72.245L66.6685 72.0533C66.1294 71.9148 65.7033 71.7049 65.3901 71.4237C65.079 71.1403 64.9235 70.7642 64.9235 70.2955C64.9235 69.9098 65.0279 69.5721 65.2367 69.2823C65.4476 68.9925 65.7342 68.7678 66.0964 68.608C66.4586 68.446 66.8688 68.3651 67.3269 68.3651C67.7914 68.3651 68.1983 68.446 68.5478 68.608C68.8993 68.7678 69.1752 68.9904 69.3755 69.2759C69.5758 69.5593 69.6792 69.8853 69.6855 70.2539H68.5446ZM70.3847 68.4545H71.7238L73.325 71.3501H73.3889L74.9901 68.4545H76.3293L73.9482 72.5582V75H72.7657V72.5582L70.3847 68.4545ZM77.169 68.4545H78.62L80.5632 73.1974H80.6399L82.5831 68.4545H84.0341V75H82.8963V70.5032H82.8356L81.0266 74.9808H80.1765L78.3675 70.4936H78.3068V75H77.169V68.4545ZM85.3253 68.4545H86.7763L88.7195 73.1974H88.7962L90.7393 68.4545H92.1903V75H91.0526V70.5032H90.9918L89.1829 74.9808H88.3327L86.5238 70.4936H86.4631V75H85.3253V68.4545Z" fill="white"/>
<path fill-rule="evenodd" clip-rule="evenodd" d="M71 1.15405e-09H70V42.6H71C76.9975 42.6 82.841 44.4987 87.6931 48.0239C92.5451 51.5491 96.1567 56.5199 98.01 62.2239C99.8633 67.9278 99.8633 74.0721 98.01 79.776C96.1567 85.48 92.5452 90.4508 87.6931 93.9761C82.8411 97.5013 76.9975 99.4 71.0001 99.4C65.0026 99.4 59.159 97.5014 54.307 93.9761C49.4549 90.4509 45.8434 85.4801 43.99 79.7762C42.1367 74.0722 42.1367 67.928 43.99 62.224L44.299 61.273L43.348 60.963L4.73496 48.419L3.78396 48.109L3.47496 49.061C-1.15809 63.3209 -1.15783 78.6815 3.47571 92.9413C8.10925 107.201 17.1382 119.628 29.2685 128.441C41.3987 137.254 56.0076 142 71.0013 142C85.995 142 100.604 137.253 112.734 128.44C124.864 119.626 133.892 107.199 138.526 92.9395C143.159 78.6796 143.159 63.319 138.525 49.0592C133.892 34.7994 124.863 22.3725 112.733 13.5595C100.602 4.74651 85.9937 -8.54616e-05 71 1.15405e-09ZM72 40.616V2.007C82.8034 2.16314 93.4192 4.85425 102.992 9.86358C112.566 14.8729 120.829 22.0605 127.116 30.8473C133.403 39.6342 137.539 49.7748 139.19 60.4525C140.842 71.1301 139.962 82.0464 136.623 92.322C130.992 109.64 118.743 124.029 102.546 132.354C86.3495 140.678 67.519 142.262 50.1595 136.76C32.7999 131.259 18.3191 119.118 9.87381 102.984C1.4285 86.8504 -0.296464 68.0322 5.07496 50.632L41.795 62.562C40.0368 68.6476 40.2236 75.1303 42.3292 81.1046C44.4348 87.0789 48.354 92.2461 53.5393 95.8846C58.7245 99.523 64.9169 101.451 71.2511 101.399C77.5853 101.346 83.745 99.3168 88.8697 95.5934C93.9943 91.87 97.8278 86.6388 99.8346 80.6307C101.841 74.6225 101.921 68.1375 100.063 62.0818C98.2049 56.026 94.5015 50.702 89.4701 46.8535C84.4388 43.005 78.331 40.8242 72 40.616Z" fill="white"/>
<path d="M4.42603 49.369C8.99405 35.3099 17.8956 23.0579 29.855 14.3689C41.8143 5.67987 56.2174 1 71 1V41.6C64.7914 41.6 58.7421 43.5656 53.7192 47.215C48.6962 50.8643 44.9576 56.0102 43.039 61.915L4.42603 49.369Z" stroke="white" stroke-width="2"/>
<path fill-rule="evenodd" clip-rule="evenodd" d="M61.9107 22.8892C61.9524 23.2414 61.9756 23.6005 61.9756 23.9655C61.9756 28.9164 57.9573 32.9311 52.9994 32.9311C49.3893 32.9311 46.2782 30.8026 44.8525 27.7334L46.2886 27.0116C47.4486 29.5571 50.0169 31.3263 52.9994 31.3263C57.0687 31.3263 60.369 28.0312 60.369 23.9655C60.369 23.8902 60.3678 23.8149 60.3655 23.7396L61.9107 22.8892ZM52.9994 15C56.7799 15 60.0152 17.3346 61.3376 20.6402L59.8017 21.1292C58.6904 18.4724 56.063 16.6047 52.9994 16.6047C48.93 16.6047 45.6297 19.8999 45.6297 23.9655C45.6297 24.0153 45.6309 24.0663 45.632 24.1161L44.1286 25.3443C44.059 24.8948 44.0231 24.4348 44.0231 23.9655C44.0242 19.0135 48.0426 15 52.9994 15Z" fill="white"/>
<path fill-rule="evenodd" clip-rule="evenodd" d="M43 27.5503L51.7791 20.3783L51.4148 23.3606L56.5386 20.4605L56.2788 23.2923L63 21.1546L53.8845 26.1692L54.5655 23.3154L49.2989 26.3986L49.647 24.2099L43 27.5503Z" fill="white"/>
<path fill-rule="evenodd" clip-rule="evenodd" d="M92.5352 19.3317C92.5352 19.3317 92.4433 19.2153 91.9665 19.218C91.4896 19.2206 86.1658 19.218 86.1658 19.218L87.36 17.0001C87.36 17.0001 89.2194 16.9999 89.976 17.0001C90.7749 17.0004 91.2847 17.2574 91.7958 18.0807C92.1837 18.7052 92.2894 18.8898 92.5352 19.3317Z" fill="white"/>
<path fill-rule="evenodd" clip-rule="evenodd" d="M85.3127 17.0004C85.3127 17.0004 82.6099 21.7754 82.2985 22.3461C81.9872 22.9169 81.785 23.0782 81.7867 23.5972C81.7884 24.1162 81.8948 24.9112 83.0379 24.9052C83.0379 24.9052 88.6514 24.9109 89.1797 24.9052C89.6269 24.9004 89.7553 24.9826 89.7485 25.1327C89.7416 25.2828 89.5434 25.5701 89.2935 25.9858C89.1893 26.159 89.0685 26.3607 88.9523 26.5544C88.7898 26.8254 88.6674 27.0665 88.3267 27.0662C88.3267 27.0662 81.9484 27.07 81.2749 27.0662C80.4659 27.0618 80.1502 26.9172 79.6257 25.9858C79.1012 25.0543 79.0066 24.9596 79.0002 24.2796C78.9938 23.5997 79.169 23.4285 79.6257 22.6304C80.0825 21.8323 81.618 19.1359 82.1848 18.1946C82.7517 17.2534 83.3781 17.0001 84.1753 17.0004H85.3127H85.3127Z" fill="white"/>
<path fill-rule="evenodd" clip-rule="evenodd" d="M81.2749 28.7725C81.2749 28.7725 81.3666 28.8888 81.8436 28.8862C82.3205 28.8835 87.6442 28.8862 87.6442 28.8862L86.45 31.1037C86.45 31.1037 84.5905 31.1039 83.834 31.1037C83.0351 31.1034 82.5253 30.8465 82.0142 30.0233C81.6263 29.3988 81.5206 29.2143 81.2749 28.7725Z" fill="white"/>
<path fill-rule="evenodd" clip-rule="evenodd" d="M88.4972 31.1037C88.4972 31.1037 91.2 26.3296 91.5113 25.7589C91.8225 25.1882 92.0248 25.0269 92.0231 24.508C92.0215 23.9892 91.9151 23.1943 90.772 23.2003C90.772 23.2003 85.1584 23.1945 84.6301 23.2003C84.183 23.2051 84.0545 23.1229 84.0614 22.9728C84.0683 22.8228 84.2665 22.5355 84.5164 22.12C84.6205 21.9467 84.7414 21.745 84.8576 21.5514C85.0201 21.2804 85.1425 21.0394 85.4831 21.0396C85.4831 21.0396 91.8615 21.0359 92.5349 21.0396C93.3439 21.044 93.6597 21.1887 94.1841 22.12C94.7086 23.0512 94.8033 23.1459 94.8097 23.8257C94.8162 24.5055 94.6409 24.6767 94.1841 25.4746C93.7273 26.2726 92.1919 28.9686 91.625 29.9097C91.0581 30.8508 90.4317 31.1039 89.6346 31.1037H88.4972Z" fill="white"/>
</g>
</svg>
